Coordinates
version=1
nRows=15
nColumns=23
inDegrees=yes

Units are S.I. units (second, meters, Newtons, ...)
If the header above contains a line with 'inDegrees', this indicates whether rotational values are in degrees (yes) or radians (no).

endheader
time	pelvis_tilt	pelvis_list	pelvis_rotation	pelvis_tx	pelvis_ty	pelvis_tz	hip_flexion_r	hip_adduction_r	hip_rotation_r	knee_angle_r	knee_angle_r_beta	ankle_angle_r	subtalar_angle_r	mtp_angle_r	hip_flexion_l	hip_adduction_l	hip_rotation_l	knee_angle_l	knee_angle_l_beta	ankle_angle_l	subtalar_angle_l	mtp_angle_l
      7.50000000	      2.50554475	     -0.87937965	     -6.98611373	      2.06925972	      0.86927236	      1.05814713	    -14.68461847	      0.43572252	     -1.17916711	     24.52175886	      0.42798543	     10.57498620	      6.07440059	      0.00000000	     32.18754436	     -6.14377191	     -6.83028363	     71.37392232	      1.24570994	     -4.21464175	    -19.14426884	      0.00000000
      7.50666667	      2.11855409	     -0.27075650	     -6.66373922	      2.07110085	      0.87220274	      1.05775858	    -16.00123749	     -0.21029066	     -1.66009995	     22.95742946	      0.40068273	      8.27755641	      6.28269893	      0.00000000	     32.62157281	     -5.07173250	     -6.67564482	     67.61275198	      1.18006514	     -3.98140671	    -18.76759585	      0.00000000
      7.51333333	      1.68970669	      0.28405868	     -6.26167758	      2.07299302	      0.87481695	      1.05728058	    -17.15876863	     -0.77104056	     -2.27759341	     21.61616842	      0.37727331	      6.02050625	      6.47560895	      0.00000000	     32.98171266	     -4.00940773	     -6.40075194	     63.69426524	      1.11167464	     -3.74051483	    -18.18804068	      0.00000000
      7.52000000	      1.29830541	      0.74766445	     -5.83807690	      2.07489284	      0.87724937	      1.05679979	    -18.26778783	     -1.20963442	     -2.89648043	     20.43242848	      0.35661315	      3.73175296	      6.57500090	      0.00000000	     33.15353483	     -3.02396347	     -6.05026389	     59.61411503	      1.04046259	     -3.52598375	    -17.41699476	      0.00000000
      7.52666667	      0.51423160	      1.12357474	     -5.46975681	      2.07674825	      0.87896141	      1.05639137	    -18.67608609	     -1.56587577	     -3.57354013	     19.77563794	      0.34514999	      1.66106797	      6.73223143	      0.00000000	     33.64362502	     -2.23782910	     -5.72693799	     55.47224479	      0.96817332	     -3.24721082	    -16.20674661	      0.00000000
      7.53333333	      0.57335426	      1.41766858	     -4.82167277	      2.07876073	      0.88133708	      1.05562925	    -20.14638179	     -1.77842339	     -4.50586586	     18.85114152	      0.32901449	     -0.58768738	      6.73110143	      0.00000000	     33.03552122	     -1.20617531	     -4.98891448	     51.09676794	      0.89180684	     -3.02108773	    -15.00630623	      0.00000000
      7.54000000	      0.27847807	      1.61303374	     -4.29242125	      2.08072061	      0.88302885	      1.05499408	    -20.94510894	     -1.91112298	     -5.37838167	     18.46213705	      0.32222508	     -2.63303340	      6.58679991	      0.00000000	     32.70249830	     -0.44006125	     -4.34919784	     46.73121817	      0.81561362	     -2.74795440	    -13.33541923	      0.00000000
      7.54666667	      0.12929490	      1.70927978	     -3.75179264	      2.08274628	      0.88455012	      1.05434295	    -21.77818971	     -1.94506434	     -6.31468988	     18.30015027	      0.31939788	     -4.61965361	      6.34101294	      0.00000000	     32.08726046	      0.21409393	     -3.67031821	     42.36259954	      0.73936684	     -2.51901663	    -11.37995906	      0.00000000
      7.55333333	     -0.27849265	      1.69190211	     -3.20750001	      2.08474229	      0.88538601	      1.05358849	    -22.07416017	     -1.88001176	     -7.29468493	     18.64965544	      0.32549789	     -6.38900452	      5.89001090	      0.00000000	     31.70618036	      0.72432895	     -2.90853506	     38.14669089	      0.66578535	     -2.28223546	     -9.17854258	      0.00000000
      7.56000000	      0.03765884	      1.72080722	     -2.68917884	      2.08687408	      0.88665224	      1.05292514	    -23.12948616	     -1.90611084	     -8.48847070	     19.02241124	      0.33200371	     -8.12040397	      5.34814995	      0.00000000	     30.40270137	      1.24095811	     -2.31010655	     33.97912595	      0.59304762	     -2.05057191	     -6.72450220	      0.00000000
      7.56666667	     -0.01631824	      1.66879568	     -2.14517299	      2.08896760	      0.88698815	      1.05212726	    -23.50315762	     -1.87514686	     -9.72974652	     19.98165436	      0.34874566	     -9.60959297	      4.43739795	      0.00000000	     29.55242727	      1.64333725	     -1.66744670	     30.20618720	      0.52719742	     -1.86996070	     -4.25204331	      0.00000000
      7.57333333	      0.21274845	      1.61502120	     -1.68975604	      2.09100612	      0.88722013	      1.05141480	    -24.00621935	     -1.91762062	    -10.96419264	     21.27176533	      0.37126234	    -10.89679307	      3.39634705	      0.00000000	     28.40777282	      1.94545298	     -1.27244153	     26.80987082	      0.46792052	     -1.74011946	     -1.79528979	      0.00000000
      7.58000000	      0.31694635	      1.57769863	     -1.15059965	      2.09305910	      0.88681315	      1.05049618	    -24.21840269	     -1.98134921	    -12.25339943	     22.91739139	      0.39998394	    -11.88073028	      1.99925180	      0.00000000	     27.49103226	      2.27458924	     -0.92182657	     23.94910816	      0.41799079	     -1.63251865	      0.50473902	      0.00000000
      7.58666667	      0.63805201	      1.58957387	     -0.77965854	      2.09493958	      0.88620873	      1.04978509	    -24.43501876	     -2.22074444	    -13.42350415	     24.99376043	      0.43622341	    -12.62316317	      0.44258077	      0.00000000	     26.43895396	      2.51751632	     -1.01063073	     21.65324937	      0.37792050	     -1.65258820	      2.45537979	      0.00000000
      7.59333333	      0.89991591	      1.65946078	     -0.34309511	      2.09669053	      0.88503810	      1.04889135	    -24.41497831	     -2.52237992	    -14.48814011	     27.44147350	      0.47894406	    -13.09030451	     -1.39145509	      0.00000000	     25.60845577	      2.84314941	     -1.18167030	     20.03553522	      0.34968606	     -1.72638905	      3.98603957	      0.00000000
